<svg id="图层_1" data-name="图层 1" xmlns="http://www.w3.org/2000/svg" viewBox="0 0 472.36 33.97"><defs><style>.cls-1{fill:#303f6a;}.cls-2,.cls-3{fill:#249765;}.cls-3{stroke:#249765;stroke-miterlimit:10;stroke-width:0.3px;fill-rule:evenodd;}</style></defs><path class="cls-1" d="M8.2,30.08,4.86,27.39a90.57,90.57,0,0,0,6-9.87l2.88,2.59Q11.11,25.18,8.2,30.08ZM13.45,8.33l-2.81,3.1A26.85,26.85,0,0,0,5.32,6.64L8,3.89A30.43,30.43,0,0,1,13.45,8.33Zm7.69-5.75h3.72a30.82,30.82,0,0,0,7.84,8,17.63,17.63,0,0,0,2.59,1.53A19,19,0,0,0,33,15.68a30,30,0,0,1-4.25-3.25v2.93H17.76V12.8A31.32,31.32,0,0,1,13,16.52a16.48,16.48,0,0,0-2.12-3.22,29,29,0,0,0,7.84-7.09A24.45,24.45,0,0,0,21.14,2.58ZM32.67,17.93v7.65c0,1.56-.37,2.62-1.1,3.16a1.67,1.67,0,0,1-.4.25,10.5,10.5,0,0,1-4.25.59h-.6a10.94,10.94,0,0,0-1.06-3.69,30.93,30.93,0,0,0,3.1,0c.35-.05.54-.19.56-.44v-4h-5.5V32.24H19.57V21.46h-5V17.93Zm-14-6h9.44a32.55,32.55,0,0,1-5-5.57A32.89,32.89,0,0,1,18.67,11.93Z"/><path class="cls-1" d="M59.52,27.36H67v3.72H37.68V27.36h4.87V5L46,5.68a75.85,75.85,0,0,0,14.25-3l2.88,3.29A101.78,101.78,0,0,1,46.46,9.14v4.22H65.21v3.72H59.52ZM46.46,17.08V27.36h9.15V17.08Z"/><path class="cls-1" d="M78.22,14.86V18h3.37v3.4H78.22v5.1L81,25.18a16.73,16.73,0,0,0,.56,3.31,63.25,63.25,0,0,0-6.94,3.69l-.12.12a9.15,9.15,0,0,0-1.38-3l-.06-.09a2.66,2.66,0,0,0,1.5-2.44V21.39H70.75V18h3.84V14.86h-2V12c-.52.62-1,1.11-1.34,1.47A17.22,17.22,0,0,0,69.65,10a1.45,1.45,0,0,0-.12-.22A17.71,17.71,0,0,0,73.69,3l.15-.44,3.31,1c-.08.23-.21.59-.4,1.09s-.28.7-.35.91h4.69V9.18H74.56q-.34.59-1.53,2.28H80.9v3.4ZM98.78,3.93V28.05c0,1.5-.38,2.5-1.13,3l-.28.16a11.79,11.79,0,0,1-4.75.65,11,11,0,0,0-1.12-3.31c.62,0,1.68.06,3.15.06a.61.61,0,0,0,.63-.62V7.27H85.62v3.47l2.32-1.28c.7,1.23,1.49,2.65,2.34,4.28.46-1.56.92-3.38,1.37-5.44l3.1.59c-.81,3.4-1.65,6.35-2.5,8.85a56.51,56.51,0,0,1,2.9,7.37l-2.78,1.63A40.85,40.85,0,0,0,90.62,22a40.72,40.72,0,0,1-3,6.22,10.47,10.47,0,0,0-2-1.28v5.28H82.09V3.93ZM85.62,11.27v14A44.51,44.51,0,0,0,88.94,18Q86.75,13.33,85.62,11.27Z"/><path class="cls-1" d="M102.6,30.77V27.24h28.94v3.53Zm6.72-9.56,7.25-.32a18.24,18.24,0,0,0-.31,3.35q-9.72.61-11.16,1.06l-.15.06a21.44,21.44,0,0,0-1.22-3.4,6.7,6.7,0,0,0,2.47-2c.12-.15.27-.31.43-.5a37.45,37.45,0,0,0,2.47-3.1,19.7,19.7,0,0,0-4.72.6,20.06,20.06,0,0,0-1.12-3.38c.5-.12,1.06-.65,1.69-1.59.08-.13.17-.26.28-.41a37.13,37.13,0,0,0,3-5.84,34.33,34.33,0,0,0,1.28-3.41l3.56,1.35A50.93,50.93,0,0,1,108,13.18l3.37-.1a47.72,47.72,0,0,0,3-5.4l3.41,1.71A66.52,66.52,0,0,1,109.32,21.21Zm13.47-.16,8.16-.34a18.64,18.64,0,0,0-.32,3.37q-10.5.57-12.06,1a3.07,3.07,0,0,0-.37.13A29.36,29.36,0,0,0,117,21.8a7.08,7.08,0,0,0,2.69-2c.1-.1.21-.22.34-.34.85-.92,1.76-2,2.72-3.22a20.6,20.6,0,0,0-4.94.59,18.66,18.66,0,0,0-1.16-3.34c.52-.15,1.16-.77,1.91-1.88l.09-.15a28,28,0,0,0,3-5.35c.6-1.31,1.1-2.54,1.5-3.68l3.53,1.37a51.43,51.43,0,0,1-5.28,9.25l3.71-.09a52.74,52.74,0,0,0,3.1-5.07l3.34,1.75A64.85,64.85,0,0,1,122.79,21.05Z"/><path class="cls-1" d="M138.89,12.46l2.6-.16c.89-1.71,1.44-2.78,1.65-3.22l3.1,1.88a55.28,55.28,0,0,1-5.72,8.47l4.84-.82a14.16,14.16,0,0,0-.09,3.16q-8.16,1.56-9.44,2.25l-.16.06a26.71,26.71,0,0,0-1.12-3.34,4.88,4.88,0,0,0,2.19-1.63,1.81,1.81,0,0,1,.28-.34,28.69,28.69,0,0,0,2.37-3.22,17.45,17.45,0,0,0-3.9.75,21.57,21.57,0,0,0-1.25-3.56,3.63,3.63,0,0,0,1.65-1.56l.19-.32a28.29,28.29,0,0,0,2.66-5.28c.45-1.12.83-2.18,1.12-3.15l3.66,1.68A45,45,0,0,1,138.89,12.46Zm-3.37,18.43-.88-3.62q2.6-.72,10.25-3.28l.66,3.12ZM157.83,29h2.56c.46,0,.76-.27.91-.81a19.8,19.8,0,0,0,.22-2.13,7.68,7.68,0,0,0,3,1.22c-.19,2.13-.73,3.46-1.63,4a4.31,4.31,0,0,1-2.15.47h-3.57c-1.73,0-2.85-.4-3.37-1.19a5.89,5.89,0,0,1-.6-3V26H150v2h-3.54V13.18h6.75V11.46h-5.62V3.74H162.3v7.72h-5.56v1.72h6.68V26h-6.68v1.5c0,.81.13,1.29.4,1.44A2.14,2.14,0,0,0,157.83,29ZM153.2,16.21H150v2h3.21ZM150,23h3.21V21.05H150Zm.65-16.32V8.58h8.41V6.64ZM160,16.21h-3.28v2H160ZM156.74,23H160V21.05h-3.28Z"/><path class="cls-2" d="M174.28,14.24l-2.22,3A39.28,39.28,0,0,0,166.84,14L169,11.21A35.59,35.59,0,0,1,174.28,14.24Zm-2.82,5.5,3.1,2q-1.5,4.82-3.72,10.25l-3.47-2A89.33,89.33,0,0,0,171.46,19.74ZM175.59,5.8l-2.28,3.09a34.57,34.57,0,0,0-5.25-3.43l2.22-2.78A37.65,37.65,0,0,1,175.59,5.8Zm6,21,2-1.22a35.22,35.22,0,0,1,4.09,5l-2.41,1.5a30.76,30.76,0,0,0-3.81-5,10.77,10.77,0,0,1-5.5,5.22,8.3,8.3,0,0,0-1.5-2.16l-.15-.15q4.28-1.93,5.18-5.69a15.25,15.25,0,0,0,.35-3.56V8.55h2.78V20.8A15.11,15.11,0,0,1,181.56,26.8Zm-3.1-20V25h-2.84V4.11H187V24.8h-3V6.8Zm12.91-1.44V25h-2.88V5.36Zm1.5-2.43h3V28.46c0,1.48-.33,2.45-1,2.93l-.34.19a12.51,12.51,0,0,1-4.88.6,14.37,14.37,0,0,0-1-3.1c.56,0,1.74,0,3.53,0a.64.64,0,0,0,.66-.65Z"/><path class="cls-2" d="M209.66,26.64l6.22-.75.12,3.57-16.12,2.12-.6-3.78,6.6-.72V23h-5.31V19.58h5.31V16.46h3.78v3.12h5.19V23h-5.19Zm-.31-16.78,2.81-1.47a31.47,31.47,0,0,1,4.62,7.07l-3,1.75a16.65,16.65,0,0,0-.78-1.66q-5.19.29-13.22.63l-.21-3.57,2.78-.06c.66-1.87,1.15-3.46,1.47-4.75h-4.19V4.43h16.22V7.8h-7.78c-.71,1.83-1.36,3.39-1.94,4.66,1.12,0,2.79-.08,5-.16C210.92,12,210.33,11.15,209.35,9.86ZM220.69,6.3v18H217V6.3Zm3.63-3H228V27.77c0,1.77-.39,2.94-1.18,3.5a3.18,3.18,0,0,1-.53.31q-1.57.72-6,.72A14.43,14.43,0,0,0,219,28.39c1.28.07,2.78.1,4.5.1.48-.15.74-.39.79-.72Z"/><path class="cls-2" d="M238.79,2.49l3.57,1.19a60.18,60.18,0,0,1-3,6.15V32.21h-3.63V15.27a33.39,33.39,0,0,1-2.62,3,21,21,0,0,0-1.91-3.78.78.78,0,0,0-.12-.19,30.51,30.51,0,0,0,6.59-9.25C238.09,4.21,238.46,3.34,238.79,2.49Zm16.38,24.87h6.5V31H241v-3.6h10.5a75,75,0,0,0,2.91-13.15c.06-.42.11-.81.16-1.16l4.15.66A114.86,114.86,0,0,1,255.17,27.36ZM241.64,8.18h7.53V2.83H253V8.18h8V11.8H241.64Zm7.9,17.37-3.78.81a61.19,61.19,0,0,0-1.59-11.25c-.11-.46-.21-.88-.31-1.28l3.43-.59a66.68,66.68,0,0,1,2.22,11.81A3.73,3.73,0,0,0,249.54,25.55Z"/><path class="cls-1" d="M286.2,23.68l3.93,1.43a30.25,30.25,0,0,1-6.65,6.13c-.32.23-.62.44-.91.62a21.93,21.93,0,0,0-3.41-2.62,23,23,0,0,0,6.44-4.88C285.83,24.11,286,23.88,286.2,23.68ZM309.32,22,306,24.3a25.43,25.43,0,0,0-1.72-2.25l-4.07.19q-2.66.12-4,.15V32.3h-4.07V22.52l-12,.34-.31-3.81,6.69-.09c.35-.23,1.08-.76,2.19-1.6a44.82,44.82,0,0,0-6.54-4.87l2.63-2.44c.5.29,1,.62,1.59,1,1-1.06,2-2.1,2.82-3.13q-3.42.17-7.5.22a12.79,12.79,0,0,0-.94-3.43A143.3,143.3,0,0,0,303.63,2.8l.41-.09,2.69,3.18a91.94,91.94,0,0,1-12.35,1.66l.1.06A59.09,59.09,0,0,1,289.29,13c.81.56,1.63,1.19,2.47,1.87A66.09,66.09,0,0,0,298.82,8l3.66,2a89.62,89.62,0,0,1-10.13,8.87c2.9,0,5.79-.1,8.69-.19-1.06-1-1.84-1.74-2.34-2.15l3.15-2a49,49,0,0,1,7.13,7C309.1,21.7,309.22,21.84,309.32,22Zm-11.25,3.65,3.16-2.18a46.2,46.2,0,0,1,7.18,5.5,3.15,3.15,0,0,1,.41.4l-3.44,2.44a39.89,39.89,0,0,0-6.56-5.62Z"/><path class="cls-1" d="M318.2,18.93l4.44-.94a15.54,15.54,0,0,0,0,3.34Q314.36,23.24,313,24a.31.31,0,0,0-.13.06,21.61,21.61,0,0,0-1.22-3.53,5.16,5.16,0,0,0,2.41-1.91.34.34,0,0,0,.12-.12q.57-.63,2.22-2.94a14.24,14.24,0,0,0-3.72.72,30.69,30.69,0,0,0-1.34-3.81,3.32,3.32,0,0,0,1.59-1.41l.32-.44A30,30,0,0,0,316,5.05c.43-1.06.79-2,1.06-3l3.87,1.81a43.85,43.85,0,0,1-4.65,8.38l2.31-.19a37.13,37.13,0,0,0,1.78-3.34l3.31,2.09A64.46,64.46,0,0,1,318.2,18.93Zm4.38,4.71.69,3.19q-5.5,2.28-10.57,4.19l-.87-3.78Q314.2,26.55,322.58,23.64Zm3.81-5.15h3.75c-.14,4-.64,6.91-1.5,8.81a10.69,10.69,0,0,1-5.44,5.16,9.07,9.07,0,0,0-2.06-2.91c-.08-.08-.15-.16-.22-.22a7.92,7.92,0,0,0,4.53-4.28A21.61,21.61,0,0,0,326.39,18.49Zm15.1-.75-3.16,1.69c-.06-.17-.42-.92-1.06-2.25q-11.56,1.18-13,1.59a2.94,2.94,0,0,0-.57.22,23.3,23.3,0,0,0-1.12-3.66,5.9,5.9,0,0,0,2.34-1q.66-.69,3.44-4.34h-5V6.58h7.09c-.35-1.12-.77-2.27-1.25-3.44l3.6-.87A24.54,24.54,0,0,1,334.39,6l-2.06.59h8.81V10h-8.31q-2.74,3.72-3.66,4.81l6.35-.5c-.21-.35-.53-.85-1-1.5-.25-.35-.43-.62-.53-.78l2.9-1.44A38.71,38.71,0,0,1,341.49,17.74Zm-4.82,10.81h1.07c.29,0,.47-.42.56-1.25s.13-1.84.15-3.47a9.33,9.33,0,0,0,3.22,1.47q-.24,4.56-1.4,5.75a3,3,0,0,1-2.13.72h-2.22c-1.6,0-2.62-.45-3.06-1.34a7.21,7.21,0,0,1-.47-3v-9h3.75v9c0,.66.1,1,.28,1.09Z"/><path class="cls-1" d="M373.15,15.33H356.34c-.08.29-.21.72-.38,1.28s-.32,1.1-.4,1.41h12.53l.59-.19,2.94,1.72q-3,3.19-7.62,7.69c1.81.73,3.29,1.38,4.43,2l-2.22,3.31a63.25,63.25,0,0,0-11.71-4.78c-1.28-.4-2.45-.74-3.54-1l2-2.88c2.48.59,4.85,1.26,7.1,2,2.46-2.39,3.9-3.82,4.34-4.28H350.21q.94-2.62,2.07-6.25h-7.57V11.71h8.63c.46-1.71.7-2.62.72-2.72h-6.69V5.36H355c.08-.39.22-1,.4-1.68.13-.55.22-1,.28-1.22h4c-.09.37-.23.94-.44,1.72-.15.52-.25.91-.31,1.18h11.87V9H358.09l-.72,2.72h15.78Z"/><path class="cls-1" d="M404.19,4.55V27.8c0,1.67-.4,2.78-1.22,3.34a3.81,3.81,0,0,1-.53.29q-1.53.7-6,.68h-.09a13.32,13.32,0,0,0-1.22-3.65q1.25.06,4.47.06.81-.12.84-.75V23h-6.75v8.93h-3.84V23h-6.53q-1,6.21-4,9.5a10.57,10.57,0,0,0-2.46-2.16l-.54-.31q3.4-3.72,3.72-11.44c0-.75,0-1.6,0-2.56V4.55Zm-20.5,14.81h6.13V15.43h-6V16C383.79,17.08,383.75,18.2,383.69,19.36Zm6.13-11.18h-6v3.71h6Zm10.59,3.71V8.18h-6.75v3.71Zm-6.75,7.47h6.75V15.43h-6.75Z"/><path class="cls-1" d="M438.26,21.71H425.7V32.24h-3.94V21.71H409.33V17.83h12.43V8.14H411V4.39h25.44V8.14H425.7v9.69h12.56ZM416.42,9.18c.27.52.54,1.06.8,1.64s.5,1.14.73,1.71.44,1.14.63,1.68a10.56,10.56,0,0,1,.4,1.5l-3.72,1.12q-.12-.61-.36-1.44c-.15-.54-.34-1.11-.54-1.7s-.44-1.19-.69-1.8-.5-1.16-.75-1.68Zm11.84,6.65q.38-.72.78-1.56c.27-.56.54-1.14.79-1.74s.47-1.18.68-1.78.39-1.15.53-1.67l4.07,1c-.59,1.23-1.19,2.45-1.8,3.64a32.26,32.26,0,0,1-1.73,3Z"/><path class="cls-1" d="M459.43,7.86l3-2.25a46.48,46.48,0,0,1,7.81,7.85c.31.43.57.83.78,1.18l-3.28,2.54a17.53,17.53,0,0,0-2.06-2.91q-9.4.5-23.31,1l-.25-3.84c.41,0,1.07,0,2-.07l3-.06a53.6,53.6,0,0,0,4.72-9.09l4.38,1.4q-2,3.69-4.47,7.53c2.33-.08,5.95-.22,10.84-.43Q461.4,9.59,459.43,7.86ZM445.52,32.27V18.21h21.31v14h-4.09V31H449.43v1.28ZM462.74,21.8H449.43v5.53h13.31Z"/><path class="cls-3" d="M270.22,2.8a6.88,6.88,0,0,1,7.59,6.08,6.92,6.92,0,1,1-13.75,1.52,7,7,0,0,1,6.16-7.6Zm.68,14.93a8.11,8.11,0,0,0,5.56-2.36,8,8,0,0,0-5.73-13.66,7.83,7.83,0,0,0-7.68,8,8,8,0,0,0,7.85,8Z"/><path class="cls-3" d="M269.38,6.86c1.29,0,3-.22,3.08,1.28s-1.86,1.29-3.15,1.29Zm2.86,3.21A2.07,2.07,0,0,0,273.74,7c-.64-1-2.28-1.07-3.79-1.07s-2.07-.29-2.07.36v7.29h1.43V10.36a9.74,9.74,0,0,1,1.43,0l1.57,3.22h1.58Z"/></svg>