<?xml version="1.0" encoding="utf-8"?>
<!-- Generator: Adobe Illustrator 24.3.0, SVG Export Plug-In . SVG Version: 6.00 Build 0)  -->
<svg version="1.1" id="图层_1" xmlns="http://www.w3.org/2000/svg" xmlns:xlink="http://www.w3.org/1999/xlink" x="0px" y="0px"
	 viewBox="0 0 54 54" style="enable-background:new 0 0 54 54;" xml:space="preserve">
<style type="text/css">
	.st0{fill:#2F3349;}
	.st1{fill:none;stroke:#FFFFFF;stroke-width:2;stroke-linecap:round;stroke-miterlimit:10;}
	.st2{fill:#FFFFFF;}
</style>
<path class="st0" d="M52,54H2c-1.1,0-2-0.9-2-2V2c0-1.1,0.9-2,2-2h50c1.1,0,2,0.9,2,2v50C54,53.1,53.1,54,52,54z"/>
<g>
	<path class="st1" d="M20.1,18.1H15c-1.1,0-1.9,0.8-1.9,1.8v19c0,1,0.9,1.8,1.9,1.8h24c1.1,0,1.9-0.8,1.9-1.8V20
		c0-1-0.9-1.8-1.9-1.8h-4.5"/>
	<g>
		<path class="st2" d="M24.5,24.1L24.5,24.1c-0.7,0-1.3-0.6-1.3-1.3v-8.4c0-0.7,0.6-1.3,1.3-1.3h0c0.7,0,1.3,0.6,1.3,1.3v8.4
			C25.8,23.5,25.3,24.1,24.5,24.1z"/>
		<path class="st2" d="M29.5,24.1L29.5,24.1c-0.7,0-1.3-0.6-1.3-1.3v-8.4c0-0.7,0.6-1.3,1.3-1.3h0c0.7,0,1.3,0.6,1.3,1.3v8.4
			C30.8,23.5,30.3,24.1,29.5,24.1z"/>
	</g>
</g>
</svg>
