<?xml version="1.0" encoding="utf-8"?>
<!-- Generator: Adobe Illustrator 24.3.0, SVG Export Plug-In . SVG Version: 6.00 Build 0)  -->
<svg version="1.1" id="图层_1" xmlns="http://www.w3.org/2000/svg" xmlns:xlink="http://www.w3.org/1999/xlink" x="0px" y="0px"
	 viewBox="0 0 54 54" style="enable-background:new 0 0 54 54;" xml:space="preserve">
<style type="text/css">
	.st0{fill:#CC81E5;}
	.st1{fill:#00C994;}
	.st2{fill:#0F8FFD;}
	.st3{fill:#242D33;}
	.st4{fill:#15B6B0;}
	.st5{fill:#2F3349;}
	.st6{fill:#FF4A46;}
	.st7{fill:#FFFFFF;}
	.st8{fill:none;stroke:#0F8FFD;stroke-miterlimit:10;}
	.st9{fill:none;stroke:#15B6B0;stroke-width:3;stroke-miterlimit:10;}
	.st10{fill:none;stroke:#15B6B0;stroke-width:3;stroke-linecap:round;stroke-miterlimit:10;}
	.st11{fill:none;stroke:#FFFFFF;stroke-width:2;stroke-miterlimit:10;}
	.st12{fill:none;stroke:#FFFFFF;stroke-width:3;stroke-miterlimit:10;}
	.st13{fill:none;stroke:#FFFFFF;stroke-width:2;stroke-linecap:round;stroke-miterlimit:10;}
	.st14{fill:none;stroke:#15B6B0;stroke-width:2;stroke-miterlimit:10;}
	.st15{fill:none;stroke:#15B6B0;stroke-width:2;stroke-linecap:round;stroke-miterlimit:10;}
	.st16{fill:none;stroke:#00C994;stroke-width:2;stroke-miterlimit:10;}
	.st17{fill:none;stroke:#CC81E5;stroke-width:2;stroke-miterlimit:10;}
	.st18{fill:none;stroke:#CC81E5;stroke-width:3;stroke-linecap:round;stroke-miterlimit:10;}
	.st19{fill:none;stroke:#FF4A46;stroke-width:3;stroke-linecap:round;stroke-miterlimit:10;}
	.st20{fill:none;stroke:#FFFFFF;stroke-width:3;stroke-linecap:round;stroke-miterlimit:10;}
</style>
<path class="st5" d="M52,54H2c-1.1,0-2-0.9-2-2V2c0-1.1,0.9-2,2-2h50c1.1,0,2,0.9,2,2v50C54,53.1,53.1,54,52,54z"/>
<g>
	<path class="st11" d="M28.9,14.1c-0.5-0.9-1.8-1.3-2.9-0.8c-0.4,0.2-0.8,0.5-1,0.8L10.7,38.2c-0.5,0.9-0.1,2,1,2.4
		c0.3,0.1,0.6,0.2,1,0.2h28.7c1.2,0,2.2-0.8,2.2-1.8c0-0.3-0.1-0.6-0.2-0.8L28.9,14.1L28.9,14.1z"/>
	<path class="st7" d="M27,19.4c1.1,0,2.1,0.8,2.1,1.8v9c0,1-0.9,1.8-2.1,1.8c-1.1,0-2.1-0.8-2.1-1.8c0,0,0,0,0,0v-9
		C24.9,20.2,25.9,19.4,27,19.4z"/>
	<path class="st7" d="M27,33.5c1.1,0,2.1,0.9,2.1,2.1c0,1.1-0.9,2.1-2.1,2.1c0,0,0,0,0,0c-1.1,0-2.1-0.9-2.1-2.1
		C24.9,34.4,25.9,33.5,27,33.5z"/>
</g>
</svg>
