<?xml version="1.0" encoding="utf-8"?>
<!-- Generator: Adobe Illustrator 24.3.0, SVG Export Plug-In . SVG Version: 6.00 Build 0)  -->
<svg version="1.1" id="图层_1" xmlns="http://www.w3.org/2000/svg" xmlns:xlink="http://www.w3.org/1999/xlink" x="0px" y="0px"
	 viewBox="0 0 43 43" style="enable-background:new 0 0 43 43;" xml:space="preserve">
<style type="text/css">
	.st0{fill:none;stroke:#394D65;stroke-width:2;stroke-miterlimit:10;}
	.st1{fill:#758AAA;}
</style>
<circle class="st0" cx="21.7" cy="21.5" r="20"/>
<path class="st1" d="M25.7,22c1.7-1.2,2.8-3.2,2.8-5.4c0-3.8-3-6.8-6.7-6.8s-6.8,3-6.8,6.8c0,2.2,1.1,4.2,2.8,5.5l0,0
	C10,24.8,10,33.2,10,33.2h1.7c0,0,0.8-10,10-10s10,10,10,10h1.7C33.4,33.2,33.4,24.8,25.7,22L25.7,22L25.7,22z M16.6,16.6
	c0-2.8,2.2-5.1,5.1-5.1s5.1,2.3,5.1,5.1s-2.3,5.1-5.1,5.1S16.6,19.3,16.6,16.6L16.6,16.6z"/>
</svg>
