<?xml version="1.0" encoding="utf-8"?>
<!-- Generator: Adobe Illustrator 24.3.0, SVG Export Plug-In . SVG Version: 6.00 Build 0)  -->
<svg version="1.1" id="图层_1" xmlns="http://www.w3.org/2000/svg" xmlns:xlink="http://www.w3.org/1999/xlink" x="0px" y="0px"
	 viewBox="0 0 54 54" style="enable-background:new 0 0 54 54;" xml:space="preserve">
<style type="text/css">
	.st0{fill:#CC81E5;}
	.st1{fill:#00C994;}
	.st2{fill:#0F8FFD;}
	.st3{fill:#242D33;}
	.st4{fill:#15B6B0;}
	.st5{fill:#2F3349;}
	.st6{fill:#FF4A46;}
	.st7{fill:#FFFFFF;}
	.st8{fill:none;stroke:#0F8FFD;stroke-miterlimit:10;}
	.st9{fill:none;stroke:#15B6B0;stroke-width:3;stroke-miterlimit:10;}
	.st10{fill:none;stroke:#15B6B0;stroke-width:3;stroke-linecap:round;stroke-miterlimit:10;}
	.st11{fill:none;stroke:#FFFFFF;stroke-width:2;stroke-miterlimit:10;}
	.st12{fill:none;stroke:#FFFFFF;stroke-width:3;stroke-miterlimit:10;}
	.st13{fill:none;stroke:#FFFFFF;stroke-width:2;stroke-linecap:round;stroke-miterlimit:10;}
	.st14{fill:none;stroke:#15B6B0;stroke-width:2;stroke-miterlimit:10;}
	.st15{fill:none;stroke:#15B6B0;stroke-width:2;stroke-linecap:round;stroke-miterlimit:10;}
	.st16{fill:none;stroke:#00C994;stroke-width:2;stroke-miterlimit:10;}
	.st17{fill:none;stroke:#CC81E5;stroke-width:2;stroke-miterlimit:10;}
	.st18{fill:none;stroke:#CC81E5;stroke-width:3;stroke-linecap:round;stroke-miterlimit:10;}
	.st19{fill:none;stroke:#FF4A46;stroke-width:3;stroke-linecap:round;stroke-miterlimit:10;}
	.st20{fill:none;stroke:#FFFFFF;stroke-width:3;stroke-linecap:round;stroke-miterlimit:10;}
</style>
<path class="st0" d="M52,54H2c-1.1,0-2-0.9-2-2V2c0-1.1,0.9-2,2-2h50c1.1,0,2,0.9,2,2v50C54,53.1,53.1,54,52,54z"/>
<path class="st11" d="M37.8,13.1h-22c-1,0-1.8,0.8-1.8,1.8v18.4c0,1,0.8,1.8,1.8,1.8h22c1,0,1.8-0.8,1.8-1.8V14.9
	C39.6,13.9,38.8,13.1,37.8,13.1z"/>
<rect x="23.2" y="35.9" class="st7" width="7.1" height="3.6"/>
<path class="st7" d="M40,40c0-0.5-0.4-0.9-0.9-0.9H15.4c-0.5,0-0.9,0.4-0.9,0.9c0,0.5,0.4,0.9,0.9,0.9h23.7C39.6,40.9,40,40.5,40,40
	z"/>
<path class="st13" d="M32,20.1L21.6,28"/>
<path class="st13" d="M32.2,27.8l-10.8-7.5"/>
</svg>
