<svg id="图层_1" data-name="图层 1" xmlns="http://www.w3.org/2000/svg" viewBox="0 0 279.28 192.32"><defs><style>.cls-1{fill:#2c395b;}</style></defs><path class="cls-1" d="M279.64,94.44,201.5,16.3h0l-7.61-7.61a26.77,26.77,0,0,0-37.87,0L110.36,54.34,130,73.94a11.45,11.45,0,0,0,16.19,0L172.5,47.58l77,77Z" transform="translate(-0.36 -0.84)"/><path class="cls-1" d="M100.65,52.45l-7.16-7.16a23.37,23.37,0,0,0-33.07,0L.36,105.34l30.2,30.19L78.64,87.44l16,16a16.28,16.28,0,0,0,23,0l7.14-7.15,9.84-9.84,6-6H128.79Z" transform="translate(-0.36 -0.84)"/><path class="cls-1" d="M22.39,169.93H34.56l-3,21.8H19.72ZM32,151.39l2.56,15.5H22.39l-2.13-15.5ZM50.4,165.7H36.57l8.79-16.29H66l8.78,16.29H61l-5.4-9.11Zm22,5.63a1.73,1.73,0,0,1,.71,1.36,1.61,1.61,0,0,1-.18.69L62.86,193H47.37l-9.85-16.56H50.7l4.09,6.85,4-8.09a1,1,0,0,0,.06-.37.85.85,0,0,0-.33-.69,1.33,1.33,0,0,0-.86-.28H37.35v-3.12H48.74v-4H62.62v4h8A2.77,2.77,0,0,1,72.36,171.33Z" transform="translate(-0.36 -0.84)"/><path class="cls-1" d="M137,189.62v3H80.43v-3h3.32V151.11l47.65-1.88v3.13l-32.64,1.33v11.22h36.56V168h-4.51v21.58Zm-38.22,0h17.09V168H98.76Z" transform="translate(-0.36 -0.84)"/><path class="cls-1" d="M162.43,159.07h2.38v3.08h-2.38v10.59l2.38-.37v3.35l-2.38.37v17.07H150.86V178l-8.66,1.38V176l8.66-1.38V162.15H149l-.71,5.57h-7.59l2.13-15h7.42l-.83,6.39h1.48V149h11.57Zm14.72,2.58-4.69,31h-7.59l4.45-31Zm19.67-7.43a2.54,2.54,0,0,1,1.1,2.05V193h-12.4v-3.27h1.3V157.42c0-.65-.41-1-1.24-1h-6.71l-.89,4.33h-12.1l2.37-11.46h12.1l-.83,4.05h14.72A4.07,4.07,0,0,1,196.82,154.22Zm-10.59,7.43-3.44,31h-8.13l3.86-31Z" transform="translate(-0.36 -0.84)"/><path class="cls-1" d="M203.26,150h25.4v3.13h-1.72v28.7h1.72V185h-1.72v8.1H216.79V185H203.26v-3.13h1.36v-28.7h-1.36Zm11.16,10.58h2.37v-7.45h-2.37Zm0,10.72h2.37v-7.64h-2.37Zm0,10.53h2.37v-7.4h-2.37ZM259.28,173h-8.07l7.65,19.87H247.35L244.26,184l-2.79,8.92H230L236.85,173h-7.48v-3.08h8.78v-9H230.5v-3.18h27.77V161h-7.78v9h8.79ZM232.57,156.5l-2.73-7.23h10.69l2.73,7.23Zm23.44,0H245.39l2.79-7.23h10.68Z" transform="translate(-0.36 -0.84)"/><path class="cls-1" d="M97.42,130.61l2.54.81a5.71,5.71,0,0,1-2,3.24,5.55,5.55,0,0,1-3.4,1,5.45,5.45,0,0,1-4.11-1.63A7,7,0,0,1,88.65,129a7.35,7.35,0,0,1,1.83-5.29A5.65,5.65,0,0,1,94.75,122a5.46,5.46,0,0,1,3.65,1.24,5.15,5.15,0,0,1,1.54,2.62l-2.59.63a2.8,2.8,0,0,0-1-1.64,2.75,2.75,0,0,0-1.75-.58,3,3,0,0,0-2.35,1,5.19,5.19,0,0,0-.91,3.45,5.52,5.52,0,0,0,.89,3.54,2.86,2.86,0,0,0,2.3,1.05,2.59,2.59,0,0,0,1.79-.67A3.9,3.9,0,0,0,97.42,130.61Z" transform="translate(-0.36 -0.84)"/><path class="cls-1" d="M104.24,135.46V122.37h2.61v10.85h6.53v2.24Z" transform="translate(-0.36 -0.84)"/><path class="cls-1" d="M116.68,128.94a8,8,0,0,1,.84-3.88,5.61,5.61,0,0,1,2.19-2.28A6.75,6.75,0,0,1,123,122a6.11,6.11,0,0,1,4.54,1.77,6.88,6.88,0,0,1,1.76,5.05,7,7,0,0,1-1.86,5.17,6,6,0,0,1-4.43,1.65,6,6,0,0,1-4.45-1.63A6.9,6.9,0,0,1,116.68,128.94Zm2.7-.09a4.94,4.94,0,0,0,1,3.42A3.35,3.35,0,0,0,123,133.4a3.3,3.3,0,0,0,2.56-1.12,5.06,5.06,0,0,0,1-3.47,5,5,0,0,0-1-3.4,3.61,3.61,0,0,0-5.2,0A5,5,0,0,0,119.38,128.85Z" transform="translate(-0.36 -0.84)"/><path class="cls-1" d="M133.27,135.46v-13.2h3.92l2.36,9,2.34-9h3.94v13.2h-2.44v-10.4l-2.59,10.4h-2.52l-2.57-10.4v10.4Z" transform="translate(-0.36 -0.84)"/><path class="cls-1" d="M157.31,135.46v-13.2h2.62v13.2Z" transform="translate(-0.36 -0.84)"/><path class="cls-1" d="M163.87,128.94a8,8,0,0,1,.84-3.88,5.61,5.61,0,0,1,2.19-2.28,6.75,6.75,0,0,1,3.27-.74,6.11,6.11,0,0,1,4.54,1.77,6.88,6.88,0,0,1,1.76,5.05,7,7,0,0,1-1.86,5.17,6,6,0,0,1-4.43,1.65,6,6,0,0,1-4.45-1.63A6.9,6.9,0,0,1,163.87,128.94Zm2.7-.09a4.94,4.94,0,0,0,1,3.42,3.5,3.5,0,0,0,5.14,0,5.06,5.06,0,0,0,1-3.47,5,5,0,0,0-1-3.4,3.61,3.61,0,0,0-5.2,0A5,5,0,0,0,166.57,128.85Z" transform="translate(-0.36 -0.84)"/><path class="cls-1" d="M183.41,135.46v-11h-3.85v-2.23h10.31v2.23H186v11Z" transform="translate(-0.36 -0.84)"/></svg>