<?xml version="1.0" encoding="utf-8"?>
<!-- Generator: Adobe Illustrator 24.3.0, SVG Export Plug-In . SVG Version: 6.00 Build 0)  -->
<svg version="1.1" id="图层_1" xmlns="http://www.w3.org/2000/svg" xmlns:xlink="http://www.w3.org/1999/xlink" x="0px" y="0px"
	 viewBox="0 0 378 34" style="enable-background:new 0 0 378 34;" xml:space="preserve">
<style type="text/css">
	.st0{fill:#BFBFBF;}
</style>
<g>
	<path class="st0" d="M4.2,31.4l-3.6-2.9C3,25.3,5.1,21.8,7,18.1l3.1,2.8C8.3,24.4,6.3,27.9,4.2,31.4z M9.8,8.3l-3,3.3
		c-1.1-1.4-3-3.1-5.6-5.1L4,3.6C6.8,5.5,8.7,7,9.8,8.3z M18,2.2h4c2.4,3.5,5.2,6.4,8.3,8.5c1,0.7,1.9,1.2,2.8,1.6
		c-0.8,0.9-1.6,2.2-2.5,3.8c-1.5-1-3-2.1-4.5-3.5v3.1H14.4v-2.7c-1.6,1.5-3.3,2.8-5,4c-0.7-1.3-1.4-2.5-2.3-3.4
		c3-1.8,5.8-4.3,8.3-7.5C16.5,4.7,17.4,3.4,18,2.2z M30.2,18.5v8.1c0,1.7-0.4,2.8-1.2,3.4c-0.1,0.1-0.3,0.2-0.4,0.3
		c-0.8,0.4-2.3,0.6-4.5,0.6c-0.2,0-0.4,0-0.6,0c-0.1-1.2-0.5-2.5-1.1-3.9c1.5,0.1,2.6,0.1,3.3,0c0.4,0,0.6-0.2,0.6-0.5v-4.3h-5.8
		v11.5h-4.1V22.3h-5.3v-3.8H30.2z M15.4,12.1h10c-2.3-2.1-4-4.1-5.3-5.9C18.7,8.4,17.2,10.3,15.4,12.1z"/>
	<path class="st0" d="M58.4,28.5h7.9v4H35.2v-4h5.2V4.8L44,5.5c6.5-0.9,11.6-2,15.1-3.2l3.1,3.5c-4.8,1.4-10.7,2.6-17.7,3.4v4.5
		h19.9v4h-6V28.5z M44.5,17.6v10.9h9.7V17.6H44.5z"/>
	<path class="st0" d="M77.8,15.2v3.3h3.6v3.6h-3.6v5.4l3-1.4c0.1,1.1,0.3,2.3,0.6,3.5c-4.4,2.1-6.8,3.5-7.4,3.9c0,0-0.1,0.1-0.1,0.1
		c-0.3-1.1-0.8-2.2-1.5-3.2c0,0,0-0.1-0.1-0.1c1-0.6,1.6-1.4,1.6-2.6v-5.7h-4.1v-3.6H74v-3.3h-2.1v-3c-0.6,0.7-1,1.2-1.4,1.6
		c-0.3-1.1-0.9-2.3-1.7-3.7c0-0.1-0.1-0.2-0.1-0.2C70.5,8,72,5.5,73,2.6c0.1-0.2,0.1-0.3,0.2-0.5l3.5,1.1c-0.1,0.2-0.2,0.6-0.4,1.2
		c-0.2,0.4-0.3,0.7-0.4,1h5v3.9h-6.9c-0.2,0.4-0.8,1.2-1.6,2.4h8.4v3.6H77.8z M99.7,3.6v25.6c0,1.6-0.4,2.7-1.2,3.2
		c-0.1,0.1-0.2,0.1-0.3,0.2c-0.9,0.5-2.6,0.7-5,0.7c-0.2-1.2-0.6-2.4-1.2-3.5c0.7,0,1.8,0.1,3.4,0.1c0.4,0,0.6-0.3,0.7-0.7v-22H85.7
		v3.7l2.5-1.4c0.8,1.3,1.6,2.8,2.5,4.5c0.5-1.7,1-3.6,1.5-5.8l3.3,0.6c-0.9,3.6-1.7,6.7-2.7,9.4c1.4,3,2.4,5.6,3.1,7.8l-3,1.7
		c-0.5-1.6-1.1-3.3-1.9-5c-1.1,2.7-2.2,4.9-3.2,6.6c-0.4-0.4-1.1-0.8-2.1-1.4v5.6h-3.8v-30H99.7z M85.7,11.4v14.9
		c1.1-1.9,2.3-4.5,3.5-7.8C87.7,15.3,86.5,12.9,85.7,11.4z"/>
	<path class="st0" d="M103.3,32.1v-3.8h30.7v3.8H103.3z M110.5,22l7.7-0.3c-0.2,1.4-0.4,2.6-0.3,3.6C111,25.7,107,26,106,26.3
		c-0.1,0-0.1,0-0.2,0.1c-0.3-1.3-0.8-2.5-1.3-3.6c0.6-0.2,1.5-0.9,2.6-2.1c0.1-0.2,0.3-0.3,0.5-0.5c0.7-0.8,1.6-1.9,2.6-3.3
		c-2.6,0.1-4.3,0.3-5,0.6c-0.2-1-0.6-2.2-1.2-3.6c0.5-0.1,1.1-0.7,1.8-1.7c0.1-0.1,0.2-0.3,0.3-0.4c0.9-1.3,2-3.4,3.2-6.2
		c0.6-1.3,1-2.5,1.4-3.6l3.8,1.4c-1.5,3.7-3.3,7-5.4,10.1l3.6-0.1c1.1-1.7,2.2-3.6,3.2-5.7l3.6,1.8C116.9,14,113.9,18.2,110.5,22z
		 M124.8,21.8l8.7-0.4c-0.2,1.2-0.3,2.4-0.3,3.6c-7.4,0.4-11.7,0.8-12.8,1.1c-0.2,0-0.3,0.1-0.4,0.1c-0.2-1-0.7-2.2-1.3-3.7
		c0.7-0.2,1.6-0.9,2.9-2.1c0.1-0.1,0.2-0.2,0.4-0.4c0.9-1,1.9-2.1,2.9-3.4c-2.9,0.2-4.6,0.4-5.2,0.6c-0.2-0.9-0.6-2.1-1.2-3.6
		c0.6-0.2,1.2-0.8,2-2c0-0.1,0.1-0.1,0.1-0.2c0.9-1.1,1.9-3,3.2-5.7c0.6-1.4,1.2-2.7,1.6-3.9l3.8,1.5c-1.6,3.7-3.5,7-5.6,9.8l4-0.1
		c1-1.4,2.1-3.2,3.3-5.4l3.6,1.9C131.4,14.1,128.3,18.2,124.8,21.8z"/>
	<path class="st0" d="M141.5,12.7l2.8-0.2c1-1.8,1.5-3,1.8-3.4l3.3,2c-1.7,3.1-3.7,6.1-6.1,9l5.1-0.9c-0.2,1.2-0.2,2.3-0.1,3.4
		c-5.8,1.1-9.1,1.9-10,2.4c-0.1,0-0.1,0-0.2,0.1c-0.3-1.2-0.7-2.4-1.2-3.6c0.6-0.1,1.4-0.7,2.3-1.7c0.1-0.1,0.2-0.3,0.3-0.4
		c0.6-0.6,1.4-1.8,2.5-3.4c-2.2,0.3-3.6,0.5-4.2,0.8c-0.2-0.9-0.6-2.1-1.3-3.8c0.5-0.1,1.1-0.7,1.8-1.7c0.1-0.1,0.1-0.2,0.2-0.3
		c0.8-1.1,1.7-2.9,2.8-5.6c0.5-1.2,0.9-2.3,1.2-3.4l3.9,1.8C145.1,7,143.4,9.9,141.5,12.7z M137.9,32.3l-0.9-3.9
		c1.8-0.5,5.5-1.7,10.9-3.5l0.7,3.3C146.4,29.1,142.9,30.4,137.9,32.3z M161.6,30.3h2.7c0.5,0,0.8-0.3,1-0.9
		c0.1-0.4,0.2-1.2,0.2-2.3c1,0.7,2.1,1.1,3.2,1.3c-0.2,2.3-0.8,3.7-1.7,4.2c-0.6,0.3-1.3,0.5-2.3,0.5h-3.8c-1.8,0-3-0.4-3.6-1.3
		c-0.4-0.7-0.6-1.8-0.6-3.2v-1.7h-3.4v2.1h-3.8V13.5h7.2v-1.8h-6V3.4h15.6v8.2h-5.9v1.8h7.1v13.6h-7.1v1.6c0,0.9,0.1,1.4,0.4,1.5
		C161,30.3,161.3,30.3,161.6,30.3z M156.7,16.7h-3.4v2.1h3.4V16.7z M153.3,23.8h3.4v-2h-3.4V23.8z M154,6.5v2.1h8.9V6.5H154z
		 M163.9,16.7h-3.5v2.1h3.5V16.7z M160.4,23.8h3.5v-2h-3.5V23.8z"/>
	<path class="st0" d="M176.9,1.1l1.2,2.2c-1.9,1-3,2.2-3.3,3.8c-0.1,0.4-0.1,0.7-0.1,1.1c0.1,0,0.2,0,0.4,0c1.1,0,1.9,0.4,2.4,1.3
		c0.2,0.4,0.3,0.8,0.3,1.3c0,1.4-0.5,2.2-1.6,2.7c-0.3,0.1-0.7,0.2-1.1,0.2c-1.8,0-2.9-1.1-3.3-3.2c-0.1-0.4-0.1-0.9-0.1-1.4
		C171.8,5.5,173.5,2.9,176.9,1.1z M185.5,1.1l1.2,2.2c-1.9,1-3,2.3-3.3,3.8c0,0.3-0.1,0.7-0.1,1c0.1,0,0.2,0,0.3,0
		c1.1,0,1.9,0.4,2.4,1.3c0.2,0.4,0.3,0.8,0.3,1.3c0,1.4-0.5,2.2-1.6,2.7c-0.3,0.1-0.7,0.2-1.1,0.2c-1.9,0-3-1.2-3.3-3.7
		c0-0.3,0-0.6,0-0.9C180.4,5.5,182.1,2.9,185.5,1.1z"/>
	<path class="st0" d="M198.3,14.6l-2.4,3.2c-1.2-0.9-3-2.1-5.5-3.5l2.3-2.9C195.2,12.6,197.1,13.7,198.3,14.6z M195.3,20.4l3.3,2.1
		c-1.1,3.4-2.4,7-4,10.9l-3.7-2.1C192.5,27.9,194,24.3,195.3,20.4z M199.6,5.6l-2.4,3.3c-1.2-1-3-2.2-5.6-3.7l2.4-3
		C196.6,3.6,198.5,4.7,199.6,5.6z M206,27.9l2.1-1.3c1.9,2,3.4,3.8,4.3,5.3l-2.6,1.6c-1-1.7-2.3-3.4-4.1-5.3
		c-1.1,2.4-3.1,4.3-5.8,5.5c-0.3-0.7-0.9-1.5-1.6-2.3c-0.1-0.1-0.1-0.1-0.2-0.2c3-1.4,4.9-3.4,5.5-6c0.2-1,0.4-2.3,0.4-3.8V8.5h3v13
		C207.1,24.1,206.7,26.3,206,27.9z M202.7,6.7V26h-3V3.8h12.1v22h-3.2V6.7H202.7z M216.4,5.2V26h-3.1V5.2H216.4z M218,2.6h3.2v27.1
		c0,1.6-0.4,2.6-1.1,3.1c-0.1,0.1-0.3,0.1-0.4,0.2c-0.9,0.4-2.7,0.7-5.2,0.6c-0.1-0.8-0.5-1.9-1-3.3c0.6,0,1.8,0,3.8,0
		c0.4,0,0.7-0.3,0.7-0.7V2.6z"/>
	<path class="st0" d="M235.4,27.8l6.6-0.8l0.1,3.8c-1.3,0.2-7,0.9-17.1,2.3l-0.6-4c1.9-0.2,4.2-0.5,7-0.8v-4.4h-5.6v-3.6h5.6v-3.3h4
		v3.3h5.5v3.6h-5.5V27.8z M235.1,9.9l3-1.6c2.5,3,4.1,5.5,4.9,7.5l-3.2,1.9c-0.2-0.4-0.5-1-0.8-1.8c-3.7,0.2-8.4,0.4-14,0.7
		l-0.2-3.8l3-0.1c0.7-2,1.2-3.7,1.6-5h-4.4V4.2H242v3.6h-8.3c-0.8,1.9-1.4,3.6-2.1,4.9c1.2,0,3-0.1,5.3-0.2
		C236.8,12.2,236.2,11.3,235.1,9.9z M247.2,6.2v19.1h-3.9V6.2H247.2z M251,3h4v26c0,1.9-0.4,3.1-1.3,3.7c-0.2,0.1-0.4,0.2-0.6,0.3
		c-1.1,0.5-3.2,0.8-6.4,0.8c-0.2-1.3-0.6-2.7-1.3-4.2c1.4,0.1,2.9,0.1,4.8,0.1c0.5-0.2,0.8-0.4,0.8-0.8V3z"/>
	<path class="st0" d="M266,2.1l3.8,1.3c-0.9,2.2-2,4.4-3.2,6.5v23.8h-3.9v-18c-1,1.3-1.9,2.4-2.8,3.2c-0.5-1.3-1.1-2.6-2-4
		c0-0.1-0.1-0.2-0.1-0.2c2.7-2.5,5.1-5.8,7-9.8C265.2,3.9,265.6,3,266,2.1z M283.4,28.5h6.9v3.8h-21.9v-3.8h11.2
		c1.4-4.4,2.4-9.1,3.1-14c0.1-0.4,0.1-0.9,0.2-1.2l4.4,0.7C286.1,19.4,284.8,24.2,283.4,28.5z M269,8.1h8V2.5h4.1v5.7h8.5V12H269
		V8.1z M277.4,26.6l-4,0.9c-0.1-3.4-0.7-7.4-1.7-12c-0.1-0.5-0.2-0.9-0.3-1.4l3.7-0.6c1.2,4.5,2,8.7,2.4,12.6
		C277.4,26.3,277.4,26.5,277.4,26.6z"/>
	<path class="st0" d="M295.1,13.3l-1.2-2.2c2-1.1,3.1-2.5,3.3-4.2c0-0.2,0-0.4,0-0.6c-0.1,0-0.2,0-0.4,0c-1.1,0-1.9-0.4-2.4-1.3
		c-0.2-0.4-0.3-0.8-0.3-1.3c0-1.3,0.5-2.2,1.6-2.7c0.4-0.2,0.7-0.2,1.1-0.2c2,0,3.1,1.3,3.3,4c0,0.2,0,0.4,0,0.6
		C300.2,8.9,298.5,11.5,295.1,13.3z M303.6,13.3l-1.2-2.2c1.9-1,3-2.3,3.3-3.9c0-0.3,0.1-0.6,0.1-1c-0.1,0-0.2,0-0.4,0
		c-1.1,0-1.9-0.4-2.4-1.3c-0.2-0.4-0.3-0.8-0.3-1.3c0-1.3,0.5-2.2,1.6-2.7c0.4-0.2,0.7-0.2,1.1-0.2c1.7,0,2.8,1,3.2,3
		c0.1,0.5,0.1,1,0.1,1.6C308.7,8.9,307,11.5,303.6,13.3z"/>
	<path class="st0" d="M319.3,24.6l4.2,1.5c-1.8,2.3-4.2,4.5-7.1,6.5c-0.3,0.2-0.7,0.5-1,0.7c-1.2-1.1-2.4-2.1-3.6-2.8
		c2.7-1.4,5-3.1,6.8-5.2C318.9,25.1,319.1,24.8,319.3,24.6z M343.9,22.8l-3.6,2.5c-0.3-0.5-0.9-1.3-1.8-2.4c-1,0-2.4,0.1-4.3,0.2
		c-1.9,0.1-3.3,0.1-4.2,0.2v10.5h-4.3V23.4c-0.5,0-4.8,0.1-12.8,0.4l-0.3-4.1c1.9,0,4.2-0.1,7.1-0.1c0.4-0.2,1.2-0.8,2.3-1.7
		c-2.1-1.9-4.4-3.6-6.9-5.2l2.8-2.6c0.5,0.3,1.1,0.7,1.7,1c1.1-1.1,2.1-2.2,3-3.3c-2.4,0.1-5.1,0.2-8,0.2c-0.1-1.1-0.4-2.3-1-3.7
		c10.3-0.2,18.4-0.9,24.3-2c0.2,0,0.3-0.1,0.4-0.1l2.9,3.4c-3.6,0.8-7.9,1.4-13.1,1.8l0.1,0.1c-1.8,2.1-3.6,4-5.5,5.7
		c0.9,0.6,1.7,1.3,2.6,2c3.1-2.7,5.6-5.1,7.5-7.3l3.9,2.1c-3.1,3.2-6.7,6.4-10.8,9.4c3.1,0,6.2-0.1,9.2-0.2c-1.1-1.1-2-1.8-2.5-2.3
		l3.4-2.1c3.4,2.8,5.9,5.3,7.6,7.5C343.7,22.5,343.8,22.7,343.9,22.8z M331.9,26.7l3.4-2.3c3.2,2.1,5.8,4,7.6,5.8
		c0.2,0.2,0.3,0.3,0.4,0.4l-3.7,2.6c-1.4-1.6-3.7-3.6-7-6C332.4,27.1,332.2,26.9,331.9,26.7z"/>
	<path class="st0" d="M352.9,19.6l4.7-1c-0.1,1.2-0.1,2.4,0,3.6c-5.9,1.4-9.3,2.3-10.3,2.8c-0.1,0-0.1,0-0.1,0.1
		c-0.3-1.3-0.8-2.6-1.3-3.8c0.7-0.2,1.6-0.8,2.6-2c0.1,0,0.1-0.1,0.1-0.1c0.4-0.4,1.2-1.5,2.4-3.1c-2.1,0.2-3.4,0.5-4,0.8
		c-0.4-1.3-0.8-2.6-1.4-4.1c0.5-0.1,1.1-0.6,1.7-1.5c0.1-0.1,0.2-0.3,0.3-0.5c0.9-1.3,1.9-3.3,2.9-5.9c0.5-1.1,0.8-2.2,1.1-3.2
		l4.1,1.9c-1.3,3.1-3,6.1-4.9,8.9l2.5-0.2c0.8-1.4,1.4-2.5,1.9-3.6l3.5,2.2C357.1,13.8,355.2,16.7,352.9,19.6z M357.6,24.6l0.7,3.4
		c-3.9,1.6-7.6,3.1-11.2,4.4l-0.9-4C347.8,27.9,351.6,26.6,357.6,24.6z M361.6,19.1h4c-0.2,4.2-0.7,7.3-1.6,9.4
		c-1.1,2.4-3.1,4.2-5.8,5.5c-0.5-1.2-1.3-2.2-2.2-3.1c-0.1-0.1-0.2-0.2-0.2-0.2c2.4-1,4-2.6,4.8-4.5
		C361.2,24.7,361.5,22.3,361.6,19.1z M377.7,18.3l-3.4,1.8c-0.1-0.2-0.4-1-1.1-2.4c-8.2,0.8-12.8,1.4-13.8,1.7
		c-0.2,0.1-0.4,0.1-0.6,0.2c-0.2-1.1-0.6-2.4-1.2-3.9c1-0.2,1.9-0.6,2.5-1.1c0.5-0.5,1.7-2,3.7-4.6h-5.3V6.5h7.5
		c-0.4-1.2-0.8-2.4-1.3-3.7l3.8-0.9c0.9,1.7,1.4,3,1.7,4l-2.2,0.6h9.4V10h-8.8c-1.9,2.6-3.2,4.3-3.9,5.1l6.7-0.5
		c-0.2-0.4-0.6-0.9-1-1.6c-0.3-0.4-0.5-0.7-0.6-0.8l3.1-1.5C375.1,13.6,376.7,16.2,377.7,18.3z M372.5,29.8h1.1
		c0.3,0,0.5-0.4,0.6-1.3c0.1-0.7,0.1-2,0.2-3.7c0.9,0.7,2,1.2,3.4,1.6c-0.2,3.2-0.7,5.3-1.5,6.1c-0.5,0.5-1.3,0.8-2.3,0.8h-2.4
		c-1.7,0-2.8-0.5-3.3-1.4c-0.3-0.7-0.5-1.7-0.5-3.2v-9.6h4v9.5c0,0.7,0.1,1.1,0.3,1.2C372.4,29.8,372.4,29.8,372.5,29.8z"/>
</g>
</svg>
