<?xml version="1.0" encoding="utf-8"?>
<!-- Generator: Adobe Illustrator 24.3.0, SVG Export Plug-In . SVG Version: 6.00 Build 0)  -->
<svg version="1.1" id="图层_1" xmlns="http://www.w3.org/2000/svg" xmlns:xlink="http://www.w3.org/1999/xlink" x="0px" y="0px"
	 viewBox="0 0 54 54" style="enable-background:new 0 0 54 54;" xml:space="preserve">
<style type="text/css">
	.st0{fill:#2F3349;}
	.st1{fill:#FFFFFF;}
</style>
<path class="st0" d="M52,54.3H2c-1.1,0-2-0.9-2-2V2c0-1.1,0.9-2,2-2h50c1.1,0,2,0.9,2,2v50.3C54,53.4,53.1,54.3,52,54.3z"/>
<g>
	<path class="st1" d="M34.8,37.1h-2.3c-0.6,0-1.2-0.3-1.5-0.9L27,29.4c-0.3-0.5-0.3-1.2,0-1.8l3.9-6.8c0.3-0.6,0.9-0.9,1.5-0.9H34
		c-0.1-1-1.8-3-2.5-3.7c-2.7-2.7-6.8-3.3-7.8-3.5l4.5,8.3c0.2,0.3,0.1,0.7-0.3,0.9l-2,1.1c0,0-0.1,0.1-0.1,0.1L21,25.6L16.6,28
		c-0.3,0.2-0.7,0.1-0.9-0.3l-4.4-8.2c-1.9,3.1-1.3,6.7,0.5,9.8c2.1,3.6,5.3,2.8,10.1,1.6c0.2-0.1,0.4,0,0.6,0.2l6.4,10.6l6.4-3.7
		L34.8,37.1z"/>
	<path class="st1" d="M40,29.4h-7.2c-0.3,0-0.5-0.2-0.5-0.5v-0.5c0-0.3,0.2-0.5,0.5-0.5H40c0.3,0,0.5,0.2,0.5,0.5v0.5
		C40.5,29.1,40.2,29.4,40,29.4z"/>
	<path class="st1" d="M43.8,27.7l-2.9-5.1c-0.3-0.6-1-1-1.7-1h-5.7c-0.7,0-1.3,0.4-1.7,1L29,27.7c-0.3,0.6-0.3,1.3,0,1.9l2.9,5.1
		c0.3,0.6,1,1,1.7,1h5.7c0.7,0,1.3-0.4,1.7-1l2.9-5.1C44.2,29,44.2,28.3,43.8,27.7z M36.4,34.4c-3.2,0-5.8-2.6-5.8-5.8
		s2.6-5.8,5.8-5.8s5.8,2.6,5.8,5.8S39.6,34.4,36.4,34.4z"/>
</g>
</svg>
