<?xml version="1.0" encoding="utf-8"?>
<!-- Generator: Adobe Illustrator 24.3.0, SVG Export Plug-In . SVG Version: 6.00 Build 0)  -->
<svg version="1.1" id="图层_1" xmlns="http://www.w3.org/2000/svg" xmlns:xlink="http://www.w3.org/1999/xlink" x="0px" y="0px"
	 viewBox="0 0 54 54" style="enable-background:new 0 0 54 54;" xml:space="preserve">
<style type="text/css">
	.st0{fill:#CC81E5;}
	.st1{fill:#00C994;}
	.st2{fill:#0F8FFD;}
	.st3{fill:#242D33;}
	.st4{fill:#15B6B0;}
	.st5{fill:#2F3349;}
	.st6{fill:#FF4A46;}
	.st7{fill:#FFFFFF;}
	.st8{fill:none;stroke:#0F8FFD;stroke-miterlimit:10;}
	.st9{fill:none;stroke:#15B6B0;stroke-width:3;stroke-miterlimit:10;}
	.st10{fill:none;stroke:#15B6B0;stroke-width:3;stroke-linecap:round;stroke-miterlimit:10;}
	.st11{fill:none;stroke:#FFFFFF;stroke-width:2;stroke-miterlimit:10;}
	.st12{fill:none;stroke:#FFFFFF;stroke-width:3;stroke-miterlimit:10;}
	.st13{fill:none;stroke:#FFFFFF;stroke-width:2;stroke-linecap:round;stroke-miterlimit:10;}
	.st14{fill:none;stroke:#15B6B0;stroke-width:2;stroke-miterlimit:10;}
	.st15{fill:none;stroke:#15B6B0;stroke-width:2;stroke-linecap:round;stroke-miterlimit:10;}
	.st16{fill:none;stroke:#00C994;stroke-width:2;stroke-miterlimit:10;}
	.st17{fill:none;stroke:#CC81E5;stroke-width:2;stroke-miterlimit:10;}
	.st18{fill:none;stroke:#CC81E5;stroke-width:3;stroke-linecap:round;stroke-miterlimit:10;}
	.st19{fill:none;stroke:#FF4A46;stroke-width:3;stroke-linecap:round;stroke-miterlimit:10;}
	.st20{fill:none;stroke:#FFFFFF;stroke-width:3;stroke-linecap:round;stroke-miterlimit:10;}
</style>
<path class="st4" d="M52,54H2c-1.1,0-2-0.9-2-2V2c0-1.1,0.9-2,2-2h50c1.1,0,2,0.9,2,2v50C54,53.1,53.1,54,52,54z"/>
<g>
	<path class="st11" d="M37.4,23.5h4.1c0.3,0,0.5-0.2,0.5-0.4v-5.5c0-0.2-0.2-0.4-0.5-0.4h-4.1"/>
	<path class="st11" d="M32,17.1H12.5c-0.3,0-0.5,0.2-0.5,0.4l0,5.5c0,0.2,0.2,0.4,0.5,0.4H32"/>
	<path class="st11" d="M27.2,41.5H15.8c-0.3,0-0.5-0.2-0.5-0.5l0.9-4.4c0-0.3,0.2-0.5,0.5-0.5h9.6c0.3,0,0.5,0.2,0.5,0.5l0.9,4.4
		C27.7,41.3,27.5,41.5,27.2,41.5z"/>
	<path class="st7" d="M39.8,38.2h-9.6c-0.8,0-1.5-0.7-1.5-1.5v-3.3c0-0.8,0.7-1.5,1.5-1.5h9.6c0.8,0,1.5,0.7,1.5,1.5v3.3
		C41.3,37.5,40.7,38.2,39.8,38.2z"/>
	<path class="st7" d="M23.2,17.6h-7.8v-4.4c0-0.4,0.3-0.7,0.7-0.7h3.7L23.2,17.6z"/>
	<path class="st11" d="M37.9,23.8v-7c0-0.6-0.5-1.1-1.1-1.1h-3.2c-0.6,0-1.1,0.5-1.1,1.1v7c0,0.6,0.5,1.1,1.1,1.1h3.2
		C37.4,24.9,37.9,24.4,37.9,23.8z"/>
	<line class="st12" x1="35.1" y1="28.5" x2="35.1" y2="25.4"/>
	<rect x="18.6" y="23.4" class="st7" width="5.4" height="13.3"/>
	<polyline class="st13" points="30,32.5 35,27.5 39.9,32.5 	"/>
</g>
</svg>
