<?xml version="1.0" encoding="utf-8"?>
<!-- Generator: Adobe Illustrator 24.3.0, SVG Export Plug-In . SVG Version: 6.00 Build 0)  -->
<svg version="1.1" id="图层_1" xmlns="http://www.w3.org/2000/svg" xmlns:xlink="http://www.w3.org/1999/xlink" x="0px" y="0px"
	 viewBox="0 0 20 20" style="enable-background:new 0 0 20 20;" xml:space="preserve">
<style type="text/css">
	.st0{fill:#FFFFFF;}
</style>
<path class="st0" d="M10.1,10L10.1,10C10.1,10,10.1,10,10.1,10z M19.8,18.7l-3.4-3.4c0.7-0.7,1.2-1.6,1.6-2.5
	c0.5-1.1,0.7-2.3,0.7-3.6S18.4,6.8,18,5.6c-0.5-1.1-1.1-2.1-2-2.9c-0.8-0.8-1.8-1.5-2.9-2C11.9,0.2,10.7,0,9.5,0S7,0.2,5.9,0.7
	c-1.1,0.5-2.1,1.1-2.9,2C2.1,3.5,1.4,4.5,1,5.6C0.5,6.8,0.2,8,0.2,9.2s0.2,2.5,0.7,3.6c0.5,1.1,1.1,2.1,2,2.9c0.8,0.8,1.8,1.5,2.9,2
	c1.1,0.5,2.3,0.7,3.6,0.7s2.4-0.2,3.6-0.7c0.8-0.3,1.6-0.8,2.2-1.3l3.4,3.4c0.2,0.2,0.3,0.2,0.5,0.2s0.4-0.1,0.5-0.2
	C20.1,19.5,20.1,19,19.8,18.7z M9.5,16.9c-4.2,0-7.7-3.4-7.7-7.7s3.4-7.7,7.7-7.7s7.7,3.4,7.7,7.7S13.7,16.9,9.5,16.9z"/>
</svg>
