<?xml version="1.0" encoding="utf-8"?>
<!-- Generator: Adobe Illustrator 24.3.0, SVG Export Plug-In . SVG Version: 6.00 Build 0)  -->
<svg version="1.1" id="图层_1" xmlns="http://www.w3.org/2000/svg" xmlns:xlink="http://www.w3.org/1999/xlink" x="0px" y="0px"
	 viewBox="0 0 54 54" style="enable-background:new 0 0 54 54;" xml:space="preserve">
<style type="text/css">
	.st0{fill:#CC81E5;}
	.st1{fill:#00C994;}
	.st2{fill:#0F8FFD;}
	.st3{fill:#242D33;}
	.st4{fill:#15B6B0;}
	.st5{fill:#2F3349;}
	.st6{fill:#FF4A46;}
	.st7{fill:#FFFFFF;}
	.st8{fill:none;stroke:#0F8FFD;stroke-miterlimit:10;}
	.st9{fill:none;stroke:#15B6B0;stroke-width:3;stroke-miterlimit:10;}
	.st10{fill:none;stroke:#15B6B0;stroke-width:3;stroke-linecap:round;stroke-miterlimit:10;}
	.st11{fill:none;stroke:#FFFFFF;stroke-width:2;stroke-miterlimit:10;}
	.st12{fill:none;stroke:#FFFFFF;stroke-width:3;stroke-miterlimit:10;}
	.st13{fill:none;stroke:#FFFFFF;stroke-width:2;stroke-linecap:round;stroke-miterlimit:10;}
	.st14{fill:none;stroke:#15B6B0;stroke-width:2;stroke-miterlimit:10;}
	.st15{fill:none;stroke:#15B6B0;stroke-width:2;stroke-linecap:round;stroke-miterlimit:10;}
	.st16{fill:none;stroke:#00C994;stroke-width:2;stroke-miterlimit:10;}
	.st17{fill:none;stroke:#CC81E5;stroke-width:2;stroke-miterlimit:10;}
	.st18{fill:none;stroke:#CC81E5;stroke-width:3;stroke-linecap:round;stroke-miterlimit:10;}
	.st19{fill:none;stroke:#FF4A46;stroke-width:3;stroke-linecap:round;stroke-miterlimit:10;}
	.st20{fill:none;stroke:#FFFFFF;stroke-width:3;stroke-linecap:round;stroke-miterlimit:10;}
</style>
<path class="st5" d="M52,54H2c-1.1,0-2-0.9-2-2V2c0-1.1,0.9-2,2-2h50c1.1,0,2,0.9,2,2v50C54,53.1,53.1,54,52,54z"/>
<g>
	<path class="st11" d="M39.5,14.6h-25c-1.1,0-2,0.9-2,2v20.9c0,1.1,0.9,2,2,2h25c1.1,0,2-0.9,2-2V16.6
		C41.5,15.5,40.6,14.6,39.5,14.6z"/>
	<path class="st7" d="M35.8,26.5v1c0,1.1-0.9,2-2,2H20.2c-1.1,0-2-0.9-2-2v-1c0-1.1,0.9-2,2-2h13.6C34.9,24.5,35.8,25.4,35.8,26.5z"
		/>
</g>
</svg>
