<?xml version="1.0" encoding="utf-8"?>
<!-- Generator: Adobe Illustrator 24.3.0, SVG Export Plug-In . SVG Version: 6.00 Build 0)  -->
<svg version="1.1" id="图层_1" xmlns="http://www.w3.org/2000/svg" xmlns:xlink="http://www.w3.org/1999/xlink" x="0px" y="0px"
	 viewBox="0 0 54 54" style="enable-background:new 0 0 54 54;" xml:space="preserve">
<style type="text/css">
	.st0{fill:#CC81E5;}
	.st1{fill:#00C994;}
	.st2{fill:#0F8FFD;}
	.st3{fill:#242D33;}
	.st4{fill:#15B6B0;}
	.st5{fill:#2F3349;}
	.st6{fill:#FF4A46;}
	.st7{fill:#FFFFFF;}
	.st8{fill:none;stroke:#0F8FFD;stroke-miterlimit:10;}
	.st9{fill:none;stroke:#15B6B0;stroke-width:3;stroke-miterlimit:10;}
	.st10{fill:none;stroke:#15B6B0;stroke-width:3;stroke-linecap:round;stroke-miterlimit:10;}
	.st11{fill:none;stroke:#FFFFFF;stroke-width:2;stroke-miterlimit:10;}
	.st12{fill:none;stroke:#FFFFFF;stroke-width:3;stroke-miterlimit:10;}
	.st13{fill:none;stroke:#FFFFFF;stroke-width:2;stroke-linecap:round;stroke-miterlimit:10;}
	.st14{fill:none;stroke:#15B6B0;stroke-width:2;stroke-miterlimit:10;}
	.st15{fill:none;stroke:#15B6B0;stroke-width:2;stroke-linecap:round;stroke-miterlimit:10;}
	.st16{fill:none;stroke:#00C994;stroke-width:2;stroke-miterlimit:10;}
	.st17{fill:none;stroke:#CC81E5;stroke-width:2;stroke-miterlimit:10;}
	.st18{fill:none;stroke:#CC81E5;stroke-width:3;stroke-linecap:round;stroke-miterlimit:10;}
	.st19{fill:none;stroke:#FF4A46;stroke-width:3;stroke-linecap:round;stroke-miterlimit:10;}
	.st20{fill:none;stroke:#FFFFFF;stroke-width:3;stroke-linecap:round;stroke-miterlimit:10;}
</style>
<path class="st2" d="M52,54H2c-1.1,0-2-0.9-2-2V2c0-1.1,0.9-2,2-2h50c1.1,0,2,0.9,2,2v50C54,53.1,53.1,54,52,54z"/>
<g>
	<path class="st7" d="M11.8,28.1L11.8,28.1l12.8,7.1c0.7,0.5,1.5,0.8,2.4,0.8c0.9,0,1.7-0.3,2.4-0.8l12.7-7l0,0l0.1-0.1
		c1.3-1.2,1.4-3,0.4-4.4c-0.1-0.1-0.2-0.1-0.3,0l-1.2,1c-0.1,0.1-0.1,0.2,0,0.3c0.4,0.5,0.4,1.1-0.1,1.6l-12.7,7l0,0l-0.1,0.1
		c-0.6,0.6-1.7,0.6-2.3,0l-0.1-0.1l-12.7-7c-0.4-0.5-0.5-1.1-0.1-1.6c0.1-0.1,0.1-0.2,0-0.3l-1.2-1c-0.1-0.1-0.2-0.1-0.3,0
		C10.3,25,10.5,26.9,11.8,28.1L11.8,28.1z"/>
	<path class="st7" d="M42.3,30.6l-1.2,1c-0.1,0.1-0.1,0.2,0,0.3c0.4,0.5,0.4,1.1-0.1,1.6l-12.7,7l0,0l-0.1,0.1
		c-0.6,0.6-1.7,0.6-2.3,0l-0.1-0.1l-12.7-7c-0.4-0.5-0.5-1.1-0.1-1.6c0.1-0.1,0.1-0.2,0-0.3l-1.2-1c-0.1-0.1-0.2-0.1-0.3,0
		c-1.1,1.3-0.9,3.2,0.4,4.4l0.1,0.1l12.8,7c0.7,0.5,1.5,0.8,2.4,0.8s1.7-0.3,2.4-0.8l12.7-7l0,0l0.1-0.1c1.3-1.2,1.4-3,0.4-4.4
		C42.5,30.5,42.4,30.5,42.3,30.6L42.3,30.6z M12.4,21.9l2,1.1l10.7,5.9c1,0.9,2.6,0.9,3.6,0L39.6,23l2-1.1c0.1-0.1,0.2-0.2,0.3-0.3
		c0.7-0.9,0.7-2.2-0.3-3l-12.8-6.8c-1-0.9-2.6-0.9-3.6,0l-12.8,6.8c-0.9,0.8-1,2.1-0.3,3C12.2,21.7,12.3,21.8,12.4,21.9z"/>
</g>
</svg>
